<svg width="42" height="41" viewBox="0 0 42 41" fill="none" xmlns="http://www.w3.org/2000/svg">
<path d="M10.8973 19.4319V26.9404C10.8973 27.8703 11.6512 28.6242 12.5811 28.6242H15.9487C16.5148 28.6529 16.9896 28.2015 16.9896 27.6346V22.7272C16.9896 21.8015 17.7368 21.0495 18.6625 21.0435L23.45 21.0125C24.3842 21.0065 25.1447 21.7621 25.1447 22.6963V27.7175C25.1447 28.2182 25.5506 28.6242 26.0514 28.6242H29.4189C30.3489 28.6242 31.1027 27.8703 31.1027 26.9404V19.4319C31.1027 18.9366 30.8847 18.4665 30.5066 18.1465L22.0876 11.0228C21.4598 10.4916 20.5402 10.4916 19.9124 11.0228L11.4935 18.1465C11.1154 18.4665 10.8973 18.9366 10.8973 19.4319Z" fill="#898989" stroke="#898989" stroke-width="2.3573" stroke-linecap="round" stroke-linejoin="round"/>
</svg>
