<svg width="41" height="41" viewBox="0 0 41 41" fill="none" xmlns="http://www.w3.org/2000/svg">
<path d="M23.6 13.4706C23.6 15.3305 22.0923 16.8382 20.2324 16.8382C18.3726 16.8382 16.8649 15.3305 16.8649 13.4706C16.8649 11.6107 18.3726 10.103 20.2324 10.103C22.0923 10.103 23.6 11.6107 23.6 13.4706Z" stroke="#898989" stroke-width="2.02054"/>
<path d="M13.3131 22.5734L14.0628 22.0736C15.8899 20.8555 18.0366 20.2056 20.2324 20.2056C22.4282 20.2056 24.5749 20.8555 26.4019 22.0736L27.1517 22.5734C28.0886 23.198 28.6513 24.2494 28.6513 25.3754V27.053C28.6513 27.9209 27.9477 28.6245 27.0798 28.6245H20.2324H13.385C12.5171 28.6245 11.8135 27.9209 11.8135 27.053V25.3754C11.8135 24.2494 12.3762 23.198 13.3131 22.5734Z" stroke="#898989" stroke-width="2.02054" stroke-linecap="round" stroke-linejoin="round"/>
</svg>
